<svg width="141" height="59" viewBox="0 0 141 59" fill="none" xmlns="http://www.w3.org/2000/svg">
<rect width="141" height="59" rx="10" fill="url(#paint0_linear_1_44)"/>
<g clip-path="url(#clip0_1_44)">
<path d="M16 24C16 23.4696 16.2107 22.9609 16.5858 22.5858C16.9609 22.2107 17.4696 22 18 22H32C32.5304 22 33.0391 22.2107 33.4142 22.5858C33.7893 22.9609 34 23.4696 34 24V34C34 34.5304 33.7893 35.0391 33.4142 35.4142C33.0391 35.7893 32.5304 36 32 36H18C17.4696 36 16.9609 35.7893 16.5858 35.4142C16.2107 35.0391 16 34.5304 16 34V24Z" stroke="white" stroke-linecap="round" stroke-linejoin="round"/>
<path d="M19 25H19.01" stroke="white" stroke-linecap="round" stroke-linejoin="round"/>
<path d="M22 25H22.01" stroke="white" stroke-linecap="round" stroke-linejoin="round"/>
</g>
<path d="M42.723 34L40.2259 25.2727H42.2415L43.6861 31.3366H43.7585L45.3523 25.2727H47.0781L48.6676 31.3494H48.7443L50.1889 25.2727H52.2045L49.7074 34H47.9091L46.2472 28.294H46.179L44.5213 34H42.723ZM55.4379 34.1278C54.7646 34.1278 54.185 33.9915 53.6992 33.7188C53.2163 33.4432 52.8441 33.054 52.5827 32.5511C52.3214 32.0455 52.1907 31.4474 52.1907 30.7571C52.1907 30.0838 52.3214 29.4929 52.5827 28.9844C52.8441 28.4759 53.212 28.0795 53.6864 27.7955C54.1637 27.5114 54.7234 27.3693 55.3654 27.3693C55.7972 27.3693 56.1992 27.4389 56.5714 27.5781C56.9464 27.7145 57.2731 27.9205 57.5515 28.196C57.8327 28.4716 58.0515 28.8182 58.2077 29.2358C58.364 29.6506 58.4421 30.1364 58.4421 30.6932V31.1918H52.9151V30.0668H56.7333C56.7333 29.8054 56.6765 29.5739 56.5629 29.3722C56.4492 29.1705 56.2915 29.0128 56.0898 28.8991C55.891 28.7827 55.6594 28.7244 55.3952 28.7244C55.1197 28.7244 54.8754 28.7884 54.6623 28.9162C54.4521 29.0412 54.2873 29.2102 54.168 29.4233C54.0487 29.6335 53.9876 29.8679 53.9847 30.1264V31.196C53.9847 31.5199 54.0444 31.7997 54.1637 32.0355C54.2859 32.2713 54.4577 32.4531 54.6793 32.581C54.9009 32.7088 55.1637 32.7727 55.4677 32.7727C55.6694 32.7727 55.854 32.7443 56.0217 32.6875C56.1893 32.6307 56.3327 32.5455 56.4521 32.4318C56.5714 32.3182 56.6623 32.179 56.7248 32.0142L58.4038 32.125C58.3185 32.5284 58.1438 32.8807 57.8796 33.1818C57.6183 33.4801 57.2802 33.7131 56.8654 33.8807C56.4535 34.0455 55.9776 34.1278 55.4379 34.1278ZM59.6609 34V25.2727H61.4762V28.554H61.5316C61.6112 28.3778 61.7262 28.1989 61.8768 28.017C62.0302 27.8324 62.229 27.679 62.4734 27.5568C62.7205 27.4318 63.0273 27.3693 63.3938 27.3693C63.8711 27.3693 64.3114 27.4943 64.7148 27.7443C65.1183 27.9915 65.4407 28.3651 65.6822 28.8651C65.9237 29.3622 66.0444 29.9858 66.0444 30.7358C66.0444 31.4659 65.9265 32.0824 65.6907 32.5852C65.4577 33.0852 65.1396 33.4645 64.7362 33.723C64.3356 33.9787 63.8867 34.1065 63.3896 34.1065C63.0373 34.1065 62.7376 34.0483 62.4904 33.9318C62.2461 33.8153 62.0458 33.669 61.8896 33.4929C61.7333 33.3139 61.614 33.1335 61.5316 32.9517H61.4506V34H59.6609ZM61.4379 30.7273C61.4379 31.1165 61.4918 31.456 61.5998 31.7457C61.7077 32.0355 61.864 32.2614 62.0685 32.4233C62.2731 32.5824 62.5217 32.6619 62.8143 32.6619C63.1097 32.6619 63.3597 32.581 63.5643 32.419C63.7688 32.2543 63.9237 32.027 64.0288 31.7372C64.1367 31.4446 64.1907 31.108 64.1907 30.7273C64.1907 30.3494 64.1381 30.017 64.033 29.7301C63.9279 29.4432 63.7731 29.2187 63.5685 29.0568C63.364 28.8949 63.1126 28.8139 62.8143 28.8139C62.5188 28.8139 62.2688 28.892 62.0643 29.0483C61.8626 29.2045 61.7077 29.4261 61.5998 29.7131C61.4918 30 61.4379 30.3381 61.4379 30.7273ZM75.5073 28.708C75.5073 31.672 74.7873 33.484 71.8833 34.768L70.5993 33.556C72.9273 32.752 73.9353 31.708 73.9353 28.756V25.564C73.9353 25.084 73.9113 24.688 73.8633 24.46H75.5793C75.5553 24.7 75.5073 25.084 75.5073 25.564V28.708ZM71.1633 24.556C71.1393 24.784 71.0913 25.168 71.0913 25.648V29.932C71.0913 30.472 71.1273 30.964 71.1513 31.192H69.4713C69.4953 30.964 69.5312 30.472 69.5312 29.932V25.636C69.5312 25.3 69.5073 24.928 69.4593 24.556H71.1633ZM67.2153 26.716C67.4313 26.752 67.9233 26.836 68.5113 26.836H76.3833C77.0193 26.836 77.3793 26.8 77.7153 26.752V28.348C77.4513 28.312 77.0193 28.312 76.3953 28.312H68.5113C67.9113 28.312 67.4913 28.336 67.2153 28.348V26.716ZM79.2753 29.344C81.4233 28.792 83.1753 28.012 84.5193 27.184C85.7433 26.428 87.1113 25.228 87.8913 24.28L89.1873 25.504C88.0953 26.608 86.6313 27.736 85.2153 28.588C83.8593 29.392 81.9153 30.292 80.0193 30.856L79.2753 29.344ZM84.2673 27.964L85.9713 27.556V32.968C85.9713 33.496 85.9953 34.24 86.0793 34.54H84.1713C84.2193 34.252 84.2673 33.496 84.2673 32.968V27.964ZM94.2873 32.86C94.2873 31.936 94.2873 26.968 94.2873 25.96C94.2873 25.528 94.2513 24.94 94.1673 24.508H96.0393C95.9913 24.94 95.9313 25.456 95.9313 25.96C95.9313 27.28 95.9433 31.972 95.9433 32.86C95.9433 33.196 95.9913 34.036 96.0513 34.528H94.1673C94.2513 34.06 94.2873 33.328 94.2873 32.86ZM95.5833 27.616C97.1793 28.06 99.7713 29.008 100.947 29.584L100.275 31.252C98.9073 30.544 96.8913 29.776 95.5833 29.344V27.616ZM110.235 24.808H111.579V31.588H110.235V24.808ZM112.395 24.016H113.787V33.376C113.787 34.156 113.631 34.54 113.187 34.792C112.743 35.02 112.047 35.068 111.123 35.068C111.063 34.66 110.859 34.024 110.679 33.604C111.303 33.628 111.927 33.628 112.143 33.628C112.335 33.628 112.395 33.568 112.395 33.376V24.016ZM105.699 23.884H107.067V35.068H105.699V23.884ZM108.123 29.776H109.419V32.848C109.419 33.412 109.347 33.748 108.987 33.964C108.639 34.168 108.183 34.192 107.583 34.18C107.547 33.82 107.391 33.304 107.235 32.956C107.559 32.968 107.871 32.968 107.979 32.968C108.087 32.968 108.123 32.944 108.123 32.824V29.776ZM103.431 29.776H108.639V31.06H104.715V34.12H103.431V29.776ZM102.963 27.616H109.707V28.912H102.963V27.616ZM104.223 25.408H109.239V26.716H103.959L104.223 25.408ZM103.887 24.04L105.207 24.304C104.943 25.564 104.487 26.872 104.031 27.7C103.743 27.532 103.119 27.292 102.783 27.172C103.275 26.392 103.671 25.18 103.887 24.04ZM120.435 25.768H126.195V27.136H119.763L120.435 25.768ZM122.019 28.408H125.883V29.716H122.019V28.408ZM122.007 31.06H126.039V32.404H122.007V31.06ZM121.287 26.224H122.763V35.08H121.287V26.224ZM120.711 23.92L122.103 24.292C121.431 26.236 120.351 28.228 119.247 29.476C119.019 29.212 118.467 28.696 118.155 28.468C119.211 27.388 120.159 25.66 120.711 23.92ZM117.543 23.86L118.935 24.304C118.155 26.344 116.895 28.54 115.575 29.908C115.443 29.548 115.035 28.732 114.783 28.372C115.887 27.28 116.931 25.576 117.543 23.86ZM116.331 27.172L117.771 25.72L117.783 25.732V35.068H116.331V27.172Z" fill="white"/>
<defs>
<linearGradient id="paint0_linear_1_44" x1="-36" y1="33" x2="168.5" y2="19.5" gradientUnits="userSpaceOnUse">
<stop stop-color="#9200AA"/>
<stop offset="1" stop-color="#FFAE12"/>
</linearGradient>
<clipPath id="clip0_1_44">
<rect width="24" height="24" fill="white" transform="translate(13 17)"/>
</clipPath>
</defs>
</svg>
