<svg width="141" height="59" viewBox="0 0 141 59" fill="none" xmlns="http://www.w3.org/2000/svg">
<rect width="141" height="59" rx="10" fill="url(#paint0_linear_1_45)"/>
<g clip-path="url(#clip0_1_45)">
<path d="M38.445 38.913C38.1669 38.8242 37.917 38.6638 37.7204 38.4479C37.5238 38.232 37.3874 37.9682 37.325 37.683C37.2611 37.4192 37.1358 37.1742 36.9593 36.968C36.7828 36.7618 36.5601 36.6001 36.3093 36.4963C36.0586 36.3924 35.7868 36.3491 35.5162 36.3701C35.2456 36.3911 34.9838 36.4757 34.752 36.617C33.209 37.557 31.442 35.791 32.382 34.247C32.5231 34.0153 32.6076 33.7537 32.6285 33.4832C32.6494 33.2128 32.6062 32.9412 32.5025 32.6906C32.3987 32.44 32.2373 32.2174 32.0313 32.0409C31.8253 31.8645 31.5806 31.7391 31.317 31.675C29.561 31.249 29.561 28.751 31.317 28.325C31.5808 28.2611 31.8258 28.1358 32.032 27.9593C32.2382 27.7828 32.3999 27.5601 32.5037 27.3093C32.6076 27.0586 32.6509 26.7868 32.6299 26.5162C32.6089 26.2456 32.5243 25.9838 32.383 25.752C31.443 24.209 33.209 22.442 34.753 23.382C35.753 23.99 37.049 23.452 37.325 22.317C37.751 20.561 40.249 20.561 40.675 22.317C40.7389 22.5808 40.8642 22.8258 41.0407 23.032C41.2172 23.2382 41.4399 23.3999 41.6907 23.5037C41.9414 23.6076 42.2132 23.6509 42.4838 23.6299C42.7544 23.6089 43.0162 23.5243 43.248 23.383C44.791 22.443 46.558 24.209 45.618 25.753C45.4769 25.9847 45.3924 26.2463 45.3715 26.5168C45.3506 26.7872 45.3938 27.0588 45.4975 27.3094C45.6013 27.56 45.7627 27.7826 45.9687 27.9591C46.1747 28.1355 46.4194 28.2609 46.683 28.325C47.993 28.643 48.326 30.115 47.68 31.019" stroke="white" stroke-linecap="round" stroke-linejoin="round"/>
<path d="M42 37L44 39L48 35" stroke="white" stroke-linecap="round" stroke-linejoin="round"/>
<path d="M36 30C36 30.7956 36.3161 31.5587 36.8787 32.1213C37.4413 32.6839 38.2044 33 39 33C39.7956 33 40.5587 32.6839 41.1213 32.1213C41.6839 31.5587 42 30.7956 42 30C42 29.2044 41.6839 28.4413 41.1213 27.8787C40.5587 27.3161 39.7956 27 39 27C38.2044 27 37.4413 27.3161 36.8787 27.8787C36.3161 28.4413 36 29.2044 36 30Z" stroke="white" stroke-linecap="round" stroke-linejoin="round"/>
</g>
<path d="M59.984 29.06H61.436V36.08H59.984V29.06ZM56.828 30.56H64.544V31.868H56.828V30.56ZM61.712 31.136C62.372 32.444 63.644 33.776 64.892 34.496C64.568 34.772 64.112 35.288 63.872 35.648C62.612 34.748 61.376 33.128 60.632 31.532L61.712 31.136ZM59.792 31.028L60.92 31.424C60.14 33.116 58.808 34.712 57.392 35.612C57.164 35.264 56.708 34.748 56.396 34.472C57.764 33.764 59.096 32.396 59.792 31.028ZM58.988 26.6V28.208H62.516V26.6H58.988ZM57.62 25.34H63.956V29.48H57.62V25.34ZM56.048 24.836L57.392 25.268C56.588 27.308 55.304 29.456 53.972 30.812C53.852 30.476 53.456 29.684 53.216 29.336C54.332 28.256 55.412 26.552 56.048 24.836ZM54.896 28.16L56.252 26.792L56.264 26.804V36.044H54.896V28.16ZM65.624 29.336H76.364V30.74H65.624V29.336ZM71.936 27.86H73.412V34.412C73.412 35.228 73.232 35.624 72.68 35.84C72.128 36.068 71.312 36.092 70.184 36.092C70.124 35.672 69.884 35.036 69.68 34.628C70.46 34.664 71.348 34.664 71.6 34.664C71.852 34.664 71.936 34.592 71.936 34.388V27.86ZM66.944 31.76L68.084 31.028C68.816 31.736 69.644 32.72 69.992 33.428L68.756 34.256C68.444 33.56 67.652 32.516 66.944 31.76ZM70.196 24.812H71.732V26.996H70.196V24.812ZM65.828 25.976H76.112V28.832H74.564V27.344H67.292V28.832H65.828V25.976ZM83 28.916C83.84 28.916 84.524 29.6 84.524 30.44C84.524 31.292 83.84 31.976 83 31.976C82.148 31.976 81.464 31.292 81.464 30.44C81.464 29.6 82.148 28.916 83 28.916ZM92.54 34.712H98.396V35.768H92.54V34.712ZM94.256 27.332H95.648V28.772H94.256V27.332ZM89.828 28.16H100.268V30.548H98.864V29.24H91.184V30.548H89.828V28.16ZM92.492 29.744H98.372V32.432H92.492V31.4H96.932V30.776H92.492V29.744ZM92.552 32.972H99.284V36.092H97.844V34.028H92.552V32.972ZM91.7 29.744H93.068V36.104H91.7V29.744ZM91.04 25.652H94.82V26.78H91.04V25.652ZM95.9 25.652H100.556V26.78H95.9V25.652ZM91.088 24.716L92.432 25.076C91.964 26.156 91.196 27.248 90.488 27.932C90.212 27.716 89.636 27.332 89.312 27.164C90.032 26.564 90.716 25.628 91.088 24.716ZM95.972 24.716L97.34 25.052C96.908 26.084 96.164 27.08 95.444 27.704C95.156 27.488 94.544 27.176 94.184 27.02C94.952 26.468 95.624 25.592 95.972 24.716ZM91.484 26.528L92.708 26.204C93.008 26.612 93.344 27.188 93.488 27.572L92.192 27.944C92.084 27.572 91.772 26.96 91.484 26.528ZM96.848 26.564L98.108 26.228C98.456 26.624 98.876 27.2 99.068 27.584L97.736 27.956C97.58 27.596 97.184 26.984 96.848 26.564ZM107.156 28.676V29.708H110.792V28.676H107.156ZM107.156 26.54V27.548H110.792V26.54H107.156ZM105.86 25.316H112.16V30.92H105.86V25.316ZM105.776 31.952H112.292V33.248H105.776V31.952ZM104.936 34.4H112.688V35.696H104.936V34.4ZM101.42 25.496H105.404V26.84H101.42V25.496ZM101.54 28.952H105.2V30.284H101.54V28.952ZM101.288 33.512C102.32 33.248 103.856 32.768 105.296 32.3L105.548 33.68C104.204 34.136 102.764 34.604 101.612 34.976L101.288 33.512ZM102.752 26.024H104.12V33.404L102.752 33.62V26.024ZM108.392 25.832H109.604V30.356H109.736V35.012H108.26V30.356H108.392V25.832Z" fill="white"/>
<defs>
<linearGradient id="paint0_linear_1_45" x1="-36" y1="33" x2="168.5" y2="19.5" gradientUnits="userSpaceOnUse">
<stop stop-color="#9200AA"/>
<stop offset="1" stop-color="#FFAE12"/>
</linearGradient>
<clipPath id="clip0_1_45">
<rect width="24" height="24" fill="white" transform="translate(27 18)"/>
</clipPath>
</defs>
</svg>
