<svg width="141" height="59" viewBox="0 0 141 59" fill="none" xmlns="http://www.w3.org/2000/svg">
<rect width="141" height="59" rx="10" fill="url(#paint0_linear_1_43)"/>
<g clip-path="url(#clip0_1_43)">
<path d="M24 21L22 35.5L16 37.5L10 35.5L8 21H24Z" stroke="white" stroke-linecap="round" stroke-linejoin="round"/>
<path d="M19.5 25H12.5L13 29H19L18.5 32.5L16 33.25L13.5 32.5L13.4 32" stroke="white" stroke-linecap="round" stroke-linejoin="round"/>
</g>
<path d="M30.7585 34V25.2727H32.6037V28.8736H36.3494V25.2727H38.1903V34H36.3494V30.3949H32.6037V34H30.7585ZM39.3793 26.794V25.2727H46.5469V26.794H43.875V34H42.0511V26.794H39.3793ZM47.7273 25.2727H50.0028L52.4062 31.1364H52.5085L54.9119 25.2727H57.1875V34H55.3977V28.3196H55.3253L53.0668 33.9574H51.848L49.5895 28.2983H49.517V34H47.7273V25.2727ZM58.7077 34V25.2727H60.5529V32.4787H64.2944V34H58.7077ZM66.6298 25.48C67.0858 25.528 67.6978 25.564 68.1178 25.564H74.1658C74.5138 25.564 75.0058 25.54 75.2098 25.528C75.1978 25.816 75.1738 26.284 75.1738 26.644V32.86C75.1738 33.28 75.2098 33.904 75.2338 34.276H73.4938C73.5058 33.916 73.5178 33.484 73.5178 33.04V27.112H68.1178C67.6138 27.112 66.9658 27.136 66.6298 27.16V25.48ZM66.4858 31.996C66.8938 32.032 67.4338 32.068 67.9738 32.068H74.4658V33.652H68.0218C67.5538 33.652 66.8818 33.676 66.4858 33.724V31.996ZM77.8498 28.444C78.2938 28.48 79.1578 28.528 79.7818 28.528C81.1978 28.528 85.1578 28.528 86.2258 28.528C86.7898 28.528 87.3178 28.468 87.6418 28.444V30.34C87.3538 30.328 86.7418 30.268 86.2378 30.268C85.1458 30.268 81.1978 30.268 79.7818 30.268C79.1098 30.268 78.3058 30.304 77.8498 30.34V28.444ZM91.0018 24.952C91.3858 25 91.8898 25.036 92.2858 25.036C93.0418 25.036 95.5138 25.036 96.2218 25.036C96.6298 25.036 97.0978 25 97.5058 24.952V26.5C97.0978 26.476 96.6298 26.452 96.2218 26.452C95.5138 26.452 93.0418 26.452 92.2978 26.452C91.8778 26.452 91.3738 26.476 91.0018 26.5V24.952ZM89.6218 28.012C89.9698 28.06 90.3898 28.096 90.7618 28.096C91.5178 28.096 97.9138 28.096 98.6218 28.096C98.8738 28.096 99.4018 28.072 99.7258 28.012V29.584C99.4258 29.56 98.9578 29.548 98.6218 29.548C97.9138 29.548 91.5178 29.548 90.7618 29.548C90.4138 29.548 89.9458 29.56 89.6218 29.584V28.012ZM95.7538 28.852C95.7538 30.424 95.4778 31.624 94.9738 32.632C94.5538 33.46 93.6298 34.396 92.5618 34.936L91.1458 33.916C91.9978 33.58 92.8498 32.896 93.3298 32.188C93.9298 31.288 94.0858 30.148 94.0858 28.864L95.7538 28.852ZM98.2258 24.124C98.5258 24.556 98.9578 25.324 99.1738 25.768L98.2138 26.176C97.9738 25.684 97.6018 24.976 97.2778 24.508L98.2258 24.124ZM99.6418 23.584C99.9538 24.028 100.398 24.796 100.614 25.216L99.6658 25.624C99.4138 25.12 99.0298 24.424 98.6938 23.968L99.6418 23.584ZM101.186 30.592C102.758 30.244 104.534 29.44 105.482 28.864C106.658 28.156 107.858 27.088 108.482 26.308L109.67 27.472C108.95 28.252 107.498 29.38 106.19 30.148C105.11 30.784 103.262 31.588 101.894 31.996L101.186 30.592ZM105.35 29.812L106.982 29.5V33.76C106.982 34.192 106.994 34.828 107.066 35.068H105.278C105.314 34.828 105.35 34.192 105.35 33.76V29.812ZM114.806 24.88C115.634 25.444 117.194 26.692 117.902 27.424L116.678 28.672C116.054 28 114.542 26.692 113.666 26.092L114.806 24.88ZM113.294 32.872C115.178 32.608 116.726 31.996 117.89 31.312C119.942 30.088 121.502 28.264 122.27 26.644L123.194 28.324C122.294 29.956 120.698 31.612 118.766 32.776C117.542 33.508 115.994 34.168 114.314 34.456L113.294 32.872ZM133.262 24.172C133.562 24.616 133.982 25.372 134.21 25.816L133.25 26.236C132.998 25.744 132.626 25.024 132.302 24.568L133.262 24.172ZM134.678 23.632C134.99 24.088 135.434 24.844 135.65 25.264L134.69 25.672C134.438 25.18 134.054 24.472 133.73 24.028L134.678 23.632ZM134.33 26.812C134.198 27.052 134.03 27.376 133.934 27.676C133.61 28.744 132.926 30.352 131.846 31.684C130.706 33.076 129.254 34.18 126.998 35.068L125.582 33.808C128.042 33.064 129.374 32.02 130.418 30.832C131.234 29.896 131.93 28.456 132.122 27.568H128.078L128.63 26.2C129.17 26.2 131.678 26.2 132.062 26.2C132.434 26.2 132.83 26.152 133.106 26.056L134.33 26.812ZM130.418 24.916C130.142 25.336 129.83 25.888 129.686 26.14C128.882 27.592 127.442 29.284 125.726 30.46L124.37 29.464C126.482 28.18 127.526 26.632 128.126 25.6C128.306 25.312 128.558 24.748 128.666 24.34L130.418 24.916Z" fill="white"/>
<defs>
<linearGradient id="paint0_linear_1_43" x1="-36" y1="33" x2="168.5" y2="19.5" gradientUnits="userSpaceOnUse">
<stop stop-color="#9200AA"/>
<stop offset="1" stop-color="#FFAE12"/>
</linearGradient>
<clipPath id="clip0_1_43">
<rect width="24" height="24" fill="white" transform="translate(4 17)"/>
</clipPath>
</defs>
</svg>
