<svg width="141" height="59" viewBox="0 0 141 59" fill="none" xmlns="http://www.w3.org/2000/svg">
<rect width="141" height="59" rx="10" fill="url(#paint0_linear_1_42)"/>
<g clip-path="url(#clip0_1_42)">
<path d="M33.5 26H36.5" stroke="white" stroke-linecap="round" stroke-linejoin="round"/>
<path d="M28 26H30.5" stroke="white" stroke-linecap="round" stroke-linejoin="round"/>
<path d="M35 26L38 37L42 28" stroke="white" stroke-linecap="round" stroke-linejoin="round"/>
<path d="M29.5 26L33 37L36 30" stroke="white" stroke-linecap="round" stroke-linejoin="round"/>
<path d="M42 28C42.177 27.472 43 26.636 43 25.5C43 23.72 42.224 23 41.125 23C40.227 23 40 23.812 40 24.429C40 26.259 42 26.487 42 28Z" stroke="white" stroke-linecap="round" stroke-linejoin="round"/>
<path d="M27 29C27 30.1819 27.2328 31.3522 27.6851 32.4442C28.1374 33.5361 28.8003 34.5282 29.636 35.364C30.4718 36.1997 31.4639 36.8626 32.5558 37.3149C33.6478 37.7672 34.8181 38 36 38C37.1819 38 38.3522 37.7672 39.4442 37.3149C40.5361 36.8626 41.5282 36.1997 42.364 35.364C43.1997 34.5282 43.8626 33.5361 44.3149 32.4442C44.7672 31.3522 45 30.1819 45 29C45 27.8181 44.7672 26.6478 44.3149 25.5558C43.8626 24.4639 43.1997 23.4718 42.364 22.636C41.5282 21.8003 40.5361 21.1374 39.4442 20.6851C38.3522 20.2328 37.1819 20 36 20C34.8181 20 33.6478 20.2328 32.5558 20.6851C31.4639 21.1374 30.4718 21.8003 29.636 22.636C28.8003 23.4718 28.1374 24.4639 27.6851 25.5558C27.2328 26.6478 27 27.8181 27 29Z" stroke="white" stroke-linecap="round" stroke-linejoin="round"/>
</g>
<path d="M54.723 34L52.2259 25.2727H54.2415L55.6861 31.3366H55.7585L57.3523 25.2727H59.0781L60.6676 31.3494H60.7443L62.1889 25.2727H64.2045L61.7074 34H59.9091L58.2472 28.294H58.179L56.5213 34H54.723ZM67.4123 34.1278C66.7504 34.1278 66.1779 33.9872 65.695 33.706C65.2148 33.4219 64.8441 33.027 64.5827 32.5213C64.3214 32.0128 64.1907 31.4233 64.1907 30.7528C64.1907 30.0767 64.3214 29.4858 64.5827 28.9801C64.8441 28.4716 65.2148 28.0767 65.695 27.7955C66.1779 27.5114 66.7504 27.3693 67.4123 27.3693C68.0742 27.3693 68.6452 27.5114 69.1254 27.7955C69.6083 28.0767 69.9805 28.4716 70.2418 28.9801C70.5032 29.4858 70.6339 30.0767 70.6339 30.7528C70.6339 31.4233 70.5032 32.0128 70.2418 32.5213C69.9805 33.027 69.6083 33.4219 69.1254 33.706C68.6452 33.9872 68.0742 34.1278 67.4123 34.1278ZM67.4208 32.7216C67.7219 32.7216 67.9734 32.6364 68.1751 32.4659C68.3768 32.2926 68.5288 32.0568 68.631 31.7585C68.7362 31.4602 68.7887 31.1207 68.7887 30.7401C68.7887 30.3594 68.7362 30.0199 68.631 29.7216C68.5288 29.4233 68.3768 29.1875 68.1751 29.0142C67.9734 28.8409 67.7219 28.7543 67.4208 28.7543C67.1168 28.7543 66.8612 28.8409 66.6538 29.0142C66.4492 29.1875 66.2944 29.4233 66.1893 29.7216C66.087 30.0199 66.0359 30.3594 66.0359 30.7401C66.0359 31.1207 66.087 31.4602 66.1893 31.7585C66.2944 32.0568 66.4492 32.2926 66.6538 32.4659C66.8612 32.6364 67.1168 32.7216 67.4208 32.7216ZM71.8143 34V27.4545H73.5742V28.5966H73.6424C73.7617 28.1903 73.962 27.8835 74.2433 27.6761C74.5245 27.4659 74.8484 27.3608 75.2148 27.3608C75.3058 27.3608 75.4038 27.3665 75.5089 27.3778C75.614 27.3892 75.7063 27.4048 75.7859 27.4247V29.0355C75.7006 29.0099 75.5827 28.9872 75.4322 28.9673C75.2816 28.9474 75.1438 28.9375 75.0188 28.9375C74.7518 28.9375 74.5131 28.9957 74.3029 29.1122C74.0955 29.2259 73.9308 29.3849 73.8086 29.5895C73.6893 29.794 73.6296 30.0298 73.6296 30.2969V34H71.8143ZM78.8317 34.1065C78.3345 34.1065 77.8842 33.9787 77.4808 33.723C77.0803 33.4645 76.7621 33.0852 76.5263 32.5852C76.2933 32.0824 76.1768 31.4659 76.1768 30.7358C76.1768 29.9858 76.2976 29.3622 76.5391 28.8651C76.7805 28.3651 77.1016 27.9915 77.5021 27.7443C77.9055 27.4943 78.3473 27.3693 78.8274 27.3693C79.1939 27.3693 79.4993 27.4318 79.7436 27.5568C79.9908 27.679 80.1896 27.8324 80.3402 28.017C80.4936 28.1989 80.6101 28.3778 80.6896 28.554H80.745V25.2727H82.5561V34H80.7663V32.9517H80.6896C80.6044 33.1335 80.4837 33.3139 80.3274 33.4929C80.174 33.669 79.9737 33.8153 79.7266 33.9318C79.4822 34.0483 79.1839 34.1065 78.8317 34.1065ZM79.407 32.6619C79.6996 32.6619 79.9467 32.5824 80.1484 32.4233C80.353 32.2614 80.5092 32.0355 80.6172 31.7457C80.728 31.456 80.7834 31.1165 80.7834 30.7273C80.7834 30.3381 80.7294 30 80.6214 29.7131C80.5135 29.4261 80.3572 29.2045 80.1527 29.0483C79.9482 28.892 79.6996 28.8139 79.407 28.8139C79.1087 28.8139 78.8572 28.8949 78.6527 29.0568C78.4482 29.2187 78.2933 29.4432 78.1882 29.7301C78.0831 30.017 78.0305 30.3494 78.0305 30.7273C78.0305 31.108 78.0831 31.4446 78.1882 31.7372C78.2962 32.027 78.451 32.2543 78.6527 32.419C78.8572 32.581 79.1087 32.6619 79.407 32.6619ZM84.0827 34V25.2727H87.5259C88.1879 25.2727 88.7518 25.3991 89.2177 25.652C89.6836 25.902 90.0387 26.25 90.283 26.696C90.5302 27.1392 90.6538 27.6506 90.6538 28.2301C90.6538 28.8097 90.5288 29.321 90.2788 29.7642C90.0288 30.2074 89.6665 30.5526 89.1921 30.7997C88.7205 31.0469 88.1495 31.1705 87.479 31.1705H85.2844V29.6918H87.1808C87.5359 29.6918 87.8285 29.6307 88.0586 29.5085C88.2915 29.3835 88.4648 29.2116 88.5785 28.9929C88.695 28.7713 88.7532 28.517 88.7532 28.2301C88.7532 27.9403 88.695 27.6875 88.5785 27.4716C88.4648 27.2528 88.2915 27.0838 88.0586 26.9645C87.8256 26.8423 87.5302 26.7812 87.1722 26.7812H85.9279V34H84.0827ZM91.8182 34V27.4545H93.5781V28.5966H93.6463C93.7656 28.1903 93.9659 27.8835 94.2472 27.6761C94.5284 27.4659 94.8523 27.3608 95.2188 27.3608C95.3097 27.3608 95.4077 27.3665 95.5128 27.3778C95.6179 27.3892 95.7102 27.4048 95.7898 27.4247V29.0355C95.7045 29.0099 95.5866 28.9872 95.4361 28.9673C95.2855 28.9474 95.1477 28.9375 95.0227 28.9375C94.7557 28.9375 94.517 28.9957 94.3068 29.1122C94.0994 29.2259 93.9347 29.3849 93.8125 29.5895C93.6932 29.794 93.6335 30.0298 93.6335 30.2969V34H91.8182ZM99.4066 34.1278C98.7333 34.1278 98.1538 33.9915 97.668 33.7188C97.185 33.4432 96.8129 33.054 96.5515 32.5511C96.2901 32.0455 96.1594 31.4474 96.1594 30.7571C96.1594 30.0838 96.2901 29.4929 96.5515 28.9844C96.8129 28.4759 97.1808 28.0795 97.6552 27.7955C98.1325 27.5114 98.6921 27.3693 99.3342 27.3693C99.766 27.3693 100.168 27.4389 100.54 27.5781C100.915 27.7145 101.242 27.9205 101.52 28.196C101.801 28.4716 102.02 28.8182 102.176 29.2358C102.333 29.6506 102.411 30.1364 102.411 30.6932V31.1918H96.8839V30.0668H100.702C100.702 29.8054 100.645 29.5739 100.532 29.3722C100.418 29.1705 100.26 29.0128 100.059 28.8991C99.8597 28.7827 99.6282 28.7244 99.364 28.7244C99.0884 28.7244 98.8441 28.7884 98.631 28.9162C98.4208 29.0412 98.256 29.2102 98.1367 29.4233C98.0174 29.6335 97.9563 29.8679 97.9535 30.1264V31.196C97.9535 31.5199 98.0131 31.7997 98.1325 32.0355C98.2546 32.2713 98.4265 32.4531 98.6481 32.581C98.8697 32.7088 99.1325 32.7727 99.4364 32.7727C99.6381 32.7727 99.8228 32.7443 99.9904 32.6875C100.158 32.6307 100.301 32.5455 100.421 32.4318C100.54 32.3182 100.631 32.179 100.694 32.0142L102.373 32.125C102.287 32.5284 102.113 32.8807 101.848 33.1818C101.587 33.4801 101.249 33.7131 100.834 33.8807C100.422 34.0455 99.9464 34.1278 99.4066 34.1278ZM109.042 29.321L107.38 29.4233C107.351 29.2812 107.29 29.1534 107.196 29.0398C107.103 28.9233 106.979 28.831 106.826 28.7628C106.675 28.6918 106.495 28.6562 106.284 28.6562C106.003 28.6562 105.766 28.7159 105.573 28.8352C105.38 28.9517 105.283 29.108 105.283 29.304C105.283 29.4602 105.346 29.5923 105.471 29.7003C105.596 29.8082 105.81 29.8949 106.114 29.9602L107.299 30.1989C107.935 30.3295 108.409 30.5398 108.722 30.8295C109.034 31.1193 109.191 31.5 109.191 31.9716C109.191 32.4006 109.064 32.777 108.811 33.1009C108.561 33.4247 108.218 33.6776 107.78 33.8594C107.346 34.0384 106.844 34.1278 106.276 34.1278C105.409 34.1278 104.719 33.9474 104.205 33.5866C103.694 33.223 103.394 32.7287 103.306 32.1037L105.091 32.0099C105.145 32.2741 105.276 32.4759 105.483 32.6151C105.691 32.7514 105.956 32.8196 106.28 32.8196C106.598 32.8196 106.854 32.7585 107.047 32.6364C107.243 32.5114 107.343 32.3509 107.346 32.1548C107.343 31.9901 107.273 31.8551 107.137 31.75C107 31.642 106.79 31.5597 106.506 31.5028L105.373 31.277C104.733 31.1491 104.257 30.9276 103.945 30.6122C103.635 30.2969 103.48 29.8949 103.48 29.4062C103.48 28.9858 103.594 28.6236 103.821 28.3196C104.051 28.0156 104.374 27.7812 104.789 27.6165C105.206 27.4517 105.695 27.3693 106.255 27.3693C107.081 27.3693 107.732 27.544 108.206 27.8935C108.684 28.2429 108.962 28.7187 109.042 29.321ZM115.78 29.321L114.118 29.4233C114.089 29.2812 114.028 29.1534 113.935 29.0398C113.841 28.9233 113.717 28.831 113.564 28.7628C113.413 28.6918 113.233 28.6562 113.023 28.6562C112.741 28.6562 112.504 28.7159 112.311 28.8352C112.118 28.9517 112.021 29.108 112.021 29.304C112.021 29.4602 112.084 29.5923 112.209 29.7003C112.334 29.8082 112.548 29.8949 112.852 29.9602L114.037 30.1989C114.673 30.3295 115.148 30.5398 115.46 30.8295C115.773 31.1193 115.929 31.5 115.929 31.9716C115.929 32.4006 115.803 32.777 115.55 33.1009C115.3 33.4247 114.956 33.6776 114.518 33.8594C114.084 34.0384 113.582 34.1278 113.014 34.1278C112.148 34.1278 111.457 33.9474 110.943 33.5866C110.432 33.223 110.132 32.7287 110.044 32.1037L111.83 32.0099C111.884 32.2741 112.014 32.4759 112.222 32.6151C112.429 32.7514 112.695 32.8196 113.018 32.8196C113.337 32.8196 113.592 32.7585 113.786 32.6364C113.982 32.5114 114.081 32.3509 114.084 32.1548C114.081 31.9901 114.011 31.8551 113.875 31.75C113.739 31.642 113.528 31.5597 113.244 31.5028L112.111 31.277C111.472 31.1491 110.996 30.9276 110.683 30.6122C110.374 30.2969 110.219 29.8949 110.219 29.4062C110.219 28.9858 110.332 28.6236 110.56 28.3196C110.79 28.0156 111.112 27.7812 111.527 27.6165C111.945 27.4517 112.433 27.3693 112.993 27.3693C113.82 27.3693 114.47 27.544 114.945 27.8935C115.422 28.2429 115.7 28.7187 115.78 29.321Z" fill="white"/>
<defs>
<linearGradient id="paint0_linear_1_42" x1="-36" y1="33" x2="168.5" y2="19.5" gradientUnits="userSpaceOnUse">
<stop stop-color="#9200AA"/>
<stop offset="1" stop-color="#FFAE12"/>
</linearGradient>
<clipPath id="clip0_1_42">
<rect width="24" height="24" fill="white" transform="translate(24 17)"/>
</clipPath>
</defs>
</svg>
