<svg width="24" height="24" viewBox="0 0 24 24" fill="none" xmlns="http://www.w3.org/2000/svg">
<g clip-path="url(#clip0_1_6)">
<path d="M9.5 9H12.5" stroke="black" stroke-linecap="round" stroke-linejoin="round"/>
<path d="M4 9H6.5" stroke="black" stroke-linecap="round" stroke-linejoin="round"/>
<path d="M11 9L14 20L18 11" stroke="black" stroke-linecap="round" stroke-linejoin="round"/>
<path d="M5.5 9L9 20L12 13" stroke="black" stroke-linecap="round" stroke-linejoin="round"/>
<path d="M18 11C18.177 10.472 19 9.636 19 8.5C19 6.72 18.224 6 17.125 6C16.227 6 16 6.812 16 7.429C16 9.259 18 9.487 18 11Z" stroke="black" stroke-linecap="round" stroke-linejoin="round"/>
<path d="M3 12C3 13.1819 3.23279 14.3522 3.68508 15.4442C4.13738 16.5361 4.80031 17.5282 5.63604 18.364C6.47177 19.1997 7.46392 19.8626 8.55585 20.3149C9.64778 20.7672 10.8181 21 12 21C13.1819 21 14.3522 20.7672 15.4442 20.3149C16.5361 19.8626 17.5282 19.1997 18.364 18.364C19.1997 17.5282 19.8626 16.5361 20.3149 15.4442C20.7672 14.3522 21 13.1819 21 12C21 10.8181 20.7672 9.64778 20.3149 8.55585C19.8626 7.46392 19.1997 6.47177 18.364 5.63604C17.5282 4.80031 16.5361 4.13738 15.4442 3.68508C14.3522 3.23279 13.1819 3 12 3C10.8181 3 9.64778 3.23279 8.55585 3.68508C7.46392 4.13738 6.47177 4.80031 5.63604 5.63604C4.80031 6.47177 4.13738 7.46392 3.68508 8.55585C3.23279 9.64778 3 10.8181 3 12Z" stroke="black" stroke-linecap="round" stroke-linejoin="round"/>
</g>
<defs>
<clipPath id="clip0_1_6">
<rect width="24" height="24" fill="white"/>
</clipPath>
</defs>
</svg>
